<svg xmlns="http://www.w3.org/2000/svg" style="isolation:isolate" viewBox="431 77 512 512" width="512pt" height="512pt"><defs><clipPath id="a"><path d="M431 77h512v512H431z"/></clipPath></defs><g clip-path="url(#a)"><linearGradient id="b" x1=".483" y1=".063" x2=".492" y2=".946" gradientTransform="matrix(512 0 0 512 431 77)" gradientUnits="userSpaceOnUse"><stop offset="0%" style="stop-color:#d03131"/><stop offset="100%" style="stop-color:#000"/></linearGradient><circle vector-effect="non-scaling-stroke" cx="687" cy="333" r="256" fill="url(#b)"/><path d="M689.325 129.047c-53.998 0-94.862 16.728-128.743 44.346h-.096l.012.07c-16.63 13.57-31.585 29.748-45.569 47.886 11.739-6.951 24.56-12.998 38.19-18.149-28.115 33.067-45.187 76.573-45.187 124.131 0 56.216 23.841 106.778 61.591 141.121-19.801-6.207-38.248-14.124-54.593-23.804 42.489 55.113 93.839 92.305 174.396 92.305 79.043 0 134.757-37.316 175.393-92.305-18.326 10.581-39.474 19.146-62.328 25.658 38.952-34.363 63.677-85.734 63.677-142.974 0-48.694-17.894-93.141-47.215-126.485 16.574 5.678 32.026 12.514 45.866 20.502-13.285-17.977-28.185-34.063-44.981-47.577l.065-.375h-.532c-34.498-27.596-76.983-44.349-129.945-44.349l-.001-.001zm1.185 51.452c3.911.017 7.822.089 11.727.209l20.543 67.374 19.611-64.33a421.95 421.95 0 0 1 18.782 2.709l28.178 161.717 22.694-130.246c23.546 29.591 37.73 67.702 37.73 109.4 0 56.216-25.771 105.918-65.523 137l-21.008-122.228-24.159 140.536a439.24 439.24 0 0 1-11.966 1.198l-14.139-54.432-14.539 55.979c-5.289.117-10.584.143-15.876.075l-14.56-56.053-14.224 54.764a428.462 428.462 0 0 1-13.644-1.281l-24.2-140.785-21.601 125.675c-42.343-30.777-70.112-82.098-70.112-140.446 0-44.685 16.291-85.253 42.938-115.626l23.778 136.473 28.266-162.241a410.91 410.91 0 0 1 19.242-2.641l19.753 64.782 20.572-67.486c3.911-.083 7.823-.116 11.736-.097l.001.001z" fill="#FFF"/></g></svg>